HIERARCHY
ROOT joint_0
{
	OFFSET 0.000000 0.000000 0.000000
	CHANNELS 6 Xposition Yposition Zposition Zrotation Yrotation Xrotation 
	JOINT joint_1
	{
		OFFSET 17.107422 0.519409 105.452026
		CHANNELS 3 Zrotation Yrotation Xrotation
		JOINT joint_2
		{
			OFFSET 6.110352 -1.434082 97.381958
			CHANNELS 3 Zrotation Yrotation Xrotation
			JOINT joint_3
			{
				OFFSET 6.305908 -1.739990 97.255005
				CHANNELS 3 Zrotation Yrotation Xrotation
				JOINT joint_4
				{
					OFFSET 22.074707 -0.492493 131.077026
					CHANNELS 3 Zrotation Yrotation Xrotation
					JOINT joint_5
					{
						OFFSET 34.162842 2.248718 78.700928
						CHANNELS 3 Zrotation Yrotation Xrotation
						End Site
						{
							OFFSET 0.000000 0.000000 0.000000
						}
					}
				}
				JOINT joint_6
				{
					OFFSET 17.059082 -28.836914 72.664062
					CHANNELS 3 Zrotation Yrotation Xrotation
					JOINT joint_7
					{
						OFFSET 22.639893 -134.803833 -24.691040
						CHANNELS 3 Zrotation Yrotation Xrotation
						JOINT joint_8
						{
							OFFSET 7.301758 -32.590759 -269.966064
							CHANNELS 3 Zrotation Yrotation Xrotation
							JOINT joint_9
							{
								OFFSET 35.581055 -8.517151 -242.326965
								CHANNELS 3 Zrotation Yrotation Xrotation
								End Site
								{
									OFFSET 0.000000 0.000000 0.000000
								}
							}
						}
					}
				}
				JOINT joint_10
				{
					OFFSET 7.819092 28.232056 74.432983
					CHANNELS 3 Zrotation Yrotation Xrotation
					JOINT joint_11
					{
						OFFSET -23.457031 135.063843 -22.406982
						CHANNELS 3 Zrotation Yrotation Xrotation
						JOINT joint_12
						{
							OFFSET 17.896973 48.138672 -267.131958
							CHANNELS 3 Zrotation Yrotation Xrotation
							JOINT joint_13
							{
								OFFSET 46.526367 17.567627 -239.975037
								CHANNELS 3 Zrotation Yrotation Xrotation
								End Site
								{
									OFFSET 0.000000 0.000000 0.000000
								}
							}
						}
					}
				}
			}
		}
	}
	JOINT joint_14
	{
		OFFSET 10.553467 -100.140320 -126.306030
		CHANNELS 3 Zrotation Yrotation Xrotation
		JOINT joint_15
		{
			OFFSET -52.094238 -9.565002 -436.052002
			CHANNELS 3 Zrotation Yrotation Xrotation
			JOINT joint_16
			{
				OFFSET -55.682617 -11.310120 -462.482971
				CHANNELS 3 Zrotation Yrotation Xrotation
				JOINT joint_17
				{
					OFFSET 179.119385 -5.942566 -84.087004
					CHANNELS 3 Zrotation Yrotation Xrotation
					End Site
					{
						OFFSET 0.000000 0.000000 0.000000
					}
				}
			}
		}
	}
	JOINT joint_18
	{
		OFFSET -22.235352 101.620483 -123.583984
		CHANNELS 3 Zrotation Yrotation Xrotation
		JOINT joint_19
		{
			OFFSET -38.118408 12.306396 -437.429016
			CHANNELS 3 Zrotation Yrotation Xrotation
			JOINT joint_20
			{
				OFFSET -51.789307 8.010498 -463.006004
				CHANNELS 3 Zrotation Yrotation Xrotation
				JOINT joint_21
				{
					OFFSET 170.088135 59.632324 -83.078003
					CHANNELS 3 Zrotation Yrotation Xrotation
					End Site
					{
						OFFSET 0.000000 0.000000 0.000000
					}
				}
			}
		}
	}
}
MOTION
Frames: 7
Frame Time: 0.016667
-3089.998291 938.807434 1126.375000 8.696177 4.696167 2.264468 1.153903 6.745025 -2.967127 0.993630 -1.348324 0.790970 1.094275 1.124020 -0.176860 1.817901 1.289569 -4.350739 0.000000 0.000000 0.000000 3.702431 7.399690 -1.007666 -2.075679 8.624957 0.043835 0.489890 -12.189935 3.513605 0.000000 0.000000 0.000000 -1.114192 2.827052 0.838938 0.638049 3.719347 4.724271 -0.372936 -2.583895 -0.680990 0.000000 0.000000 0.000000 4.182657 -22.915123 -6.722588 4.827313 9.595877 -1.816400 5.017961 3.921658 2.357175 0.000000 0.000000 0.000000 -6.071519 3.184360 7.288956 -4.448507 13.992575 -5.224884 -4.556268 13.415831 -6.750267 0.000000 0.000000 0.000000 
-3076.242920 931.060547 1120.362061 9.467540 4.613451 2.137650 1.083666 6.821471 -2.374434 1.052491 -1.355771 0.662589 1.152993 1.205072 -0.146076 1.983160 1.672262 -4.814222 0.000000 0.000000 0.000000 3.981959 7.432216 -0.958471 -2.131856 8.682403 -0.135517 0.481312 -12.049407 3.538189 0.000000 0.000000 0.000000 -1.042880 2.406682 0.514250 0.687971 3.463285 5.471729 -0.493439 -3.194986 -0.930765 0.000000 0.000000 0.000000 3.743416 -23.933675 -6.094515 4.400454 12.110586 -1.619224 4.968442 2.712113 2.287264 0.000000 0.000000 0.000000 -6.274618 2.872289 8.179476 -4.398198 16.116993 -5.670162 -4.636510 11.984443 -6.267386 0.000000 0.000000 0.000000 
-3063.094238 922.797913 1114.369995 10.274668 4.540349 1.708029 1.010389 6.968705 -1.363052 1.145174 -1.415114 0.507063 1.245596 1.341310 -0.103359 2.204947 1.996787 -5.417213 0.000000 0.000000 0.000000 4.591940 7.427641 -0.823968 -2.227421 8.732690 -0.465697 0.467872 -11.938167 3.575559 0.000000 0.000000 0.000000 -1.021618 1.779545 -0.140200 0.760184 3.101473 6.431519 -0.580898 -3.696887 -1.035918 0.000000 0.000000 0.000000 2.462280 -25.684585 -4.914513 3.093278 17.046639 -1.194967 4.471391 0.127917 1.963415 0.000000 0.000000 0.000000 -6.553578 2.156414 9.389311 -4.356295 19.020097 -6.159944 -4.695845 10.222909 -5.666513 0.000000 0.000000 0.000000 
-3050.548096 915.028931 1109.041016 11.147175 4.347841 1.456228 0.909888 7.489360 -0.612360 1.194031 -1.583637 0.429793 1.300929 1.501965 -0.056759 2.386192 2.332273 -5.938329 0.000000 0.000000 0.000000 5.022300 7.256159 -0.631197 -2.266846 8.547572 -0.908824 0.453897 -11.528928 3.428152 0.000000 0.000000 0.000000 -0.967746 1.124225 -0.694559 0.834656 2.621603 6.979097 -0.619066 -4.250895 -0.824753 0.000000 0.000000 0.000000 1.113569 -27.179272 -3.924405 1.769854 22.011818 -1.024090 3.994706 -2.254292 1.653524 0.000000 0.000000 0.000000 -6.762817 1.086173 10.375886 -4.246214 22.441054 -6.689360 -4.529280 8.778787 -5.103594 0.000000 0.000000 0.000000 
-3038.677734 908.429871 1104.753052 11.868321 4.010329 1.560011 0.809330 8.465983 -0.358201 1.238575 -1.777133 0.374628 1.355471 1.668777 -0.012651 2.453233 2.698989 -6.199284 0.000000 0.000000 0.000000 4.879096 6.775934 -0.336084 -2.145296 7.873796 -1.541097 0.444229 -10.441850 2.979297 0.000000 0.000000 0.000000 -0.820269 0.561395 -0.809869 0.910576 1.995041 6.631701 -0.582218 -4.996865 -0.058007 0.000000 0.000000 0.000000 0.320979 -28.113594 -3.467317 1.013025 25.798417 -1.142244 3.930032 -4.007732 1.548366 0.000000 0.000000 0.000000 -6.620253 -0.426077 10.929887 -3.793047 26.408866 -7.226334 -3.643703 8.107280 -4.563478 0.000000 0.000000 0.000000 
-3027.472900 902.615784 1101.240967 12.456827 3.540000 1.822444 0.687389 9.842897 -0.293195 1.306282 -1.976634 0.270231 1.433949 1.825586 0.033511 2.438226 3.062564 -6.271749 0.000000 0.000000 0.000000 4.348887 6.038187 0.081068 -1.899020 6.797360 -2.387120 0.422586 -8.779309 2.319675 0.000000 0.000000 0.000000 -0.610991 0.043684 -0.649897 0.983251 1.246610 5.622850 -0.495788 -5.911525 1.194121 0.000000 0.000000 0.000000 -0.215324 -28.784083 -3.241162 0.484809 29.265739 -1.419337 4.080785 -5.608990 1.541627 0.000000 0.000000 0.000000 -6.231625 -2.313557 11.221811 -3.105960 30.917144 -7.642779 -1.941111 8.078266 -3.997863 0.000000 0.000000 0.000000 
-3016.690186 897.544312 1098.860962 13.107453 3.127582 2.064777 0.505301 11.151220 -0.184054 1.390359 -2.149146 0.145552 1.533497 1.937747 0.090663 2.382071 3.478034 -6.268463 0.000000 0.000000 0.000000 3.786291 5.282079 0.424898 -1.698807 5.756558 -3.038090 0.335856 -7.206486 1.350240 0.000000 0.000000 0.000000 -0.405750 -0.374117 -0.466974 0.995713 0.532667 4.279077 -0.474518 -6.967420 2.382251 0.000000 0.000000 0.000000 -0.668385 -29.086644 -3.001645 -0.016112 31.914233 -1.823725 4.109585 -6.835719 1.499762 0.000000 0.000000 0.000000 -6.221813 -4.283639 11.382462 -2.836012 35.211942 -8.258289 -0.547891 8.127597 -3.621281 0.000000 0.000000 0.000000 
